<?xml version="1.0" encoding="UTF-8" standalone="no"?>
<svg
   xmlns:dc="http://purl.org/dc/elements/1.1/"
   xmlns:cc="http://creativecommons.org/ns#"
   xmlns:rdf="http://www.w3.org/1999/02/22-rdf-syntax-ns#"
   xmlns:svg="http://www.w3.org/2000/svg"
   xmlns="http://www.w3.org/2000/svg"
   viewBox="0 0 449.76602 449.77353"
   height="449.77353"
   width="449.76602"
   version="1.1"
   id="svg2">
  <metadata
     id="metadata8">
    <rdf:RDF>
      <cc:Work
         rdf:about="">
        <dc:format>image/svg+xml</dc:format>
        <dc:type
           rdf:resource="http://purl.org/dc/dcmitype/StillImage" />
        <dc:title></dc:title>
      </cc:Work>
    </rdf:RDF>
  </metadata>
  <defs
     id="defs6" />
  <path
     id="path3338"
     d="m 202.44171,448.74554 c -24.34454,-2.30229 -52.99814,-10.51896 -76,-21.79365 C 80.836443,404.5978 45.210883,368.97224 22.856804,323.36697 -31.671206,212.12269 14.703264,77.552288 126.44171,22.782051 c 85.9225,-42.116166 189.60588,-24.7551518 257.47297,43.111947 44.30483,44.304822 68.20976,105.270122 65.66736,167.472972 -1.33818,32.74038 -8.3818,60.78699 -22.60258,90 -41.16743,84.56817 -130.22686,134.29764 -224.53775,125.37857 z m 48.65826,-19.46704 c 103.33838,-13.30039 180.50201,-101.42038 179.73321,-205.25327 -0.0597,-8.06204 -0.3972,-17.35826 -0.75,-20.65826 l -0.64147,-6 -3.91149,7 c -28.15131,50.37962 -73.29259,99.16429 -116.47509,125.87589 -58.30176,36.06399 -120.55696,39.27933 -167.47673,8.64977 l -7.79191,-5.08661 -12.17239,4.90707 c -14.79923,5.96604 -30.493337,11.17281 -45.154777,14.98083 l -10.98239,2.85246 12.98239,12.98542 c 22.516907,22.52216 43.467237,36.34418 72.482387,47.82038 11.69646,4.62624 33.06991,10.11995 46.46565,11.94328 13.99204,1.90449 38.82467,1.89665 53.69261,-0.017 z m -8.26504,-96.9163 c 10.92835,-2.11794 27.02644,-7.42414 37.70453,-12.42806 36.26679,-16.9952 78.02322,-53.20538 107.81983,-93.49881 13.9497,-18.86392 34.58242,-53.41666 34.58242,-57.9137 0,-6.33452 -12.82205,-36.22058 -21.72374,-50.63442 C 372.50524,71.394878 327.89932,38.363728 276.11935,25.250368 219.75083,10.974956 159.33683,20.982665 111.94171,52.446748 40.232683,100.05206 5.3193342,185.55606 23.572104,268.86697 c 3.76145,17.16833 8.99097,31.77724 17.361449,48.5 l 7.50816,15 5.79681,-0.26324 c 9.79332,-0.44474 42.59559,-8.0599 57.998427,-13.46454 l 3.79524,-1.3317 -5.20611,-6.47026 C 97.435623,294.1953 87.596223,273.40416 82.866993,251.75829 c -10.37058,-47.46657 2.56339,-98.91528 35.912227,-142.8515 12.727,-16.767492 34.54939,-36.182952 51.69401,-45.992352 44.42556,-25.41836 92.22419,-21.65489 121.37205,9.55635 13.67976,14.64816 21.3106,35.266812 21.42703,57.896182 0.0713,13.85907 -1.33892,23.15451 -5.53746,36.5 -15.21998,48.37822 -69.01796,107.23354 -133.04314,145.55002 -7.0125,4.19669 -12.75,7.80719 -12.75,8.02332 0,2.06896 23.94914,10.61616 34.5,12.31269 3.85,0.61906 8.125,1.3182 9.5,1.55365 5.11051,0.87508 28.78224,-0.37253 36.89322,-1.94445 z m -84.39322,-33.41003 c 68.73191,-35.47092 122.78215,-95.05192 133.5563,-147.22262 3.86673,-18.72353 1.57005,-39.75486 -5.97315,-54.697862 -11.77392,-23.32401 -32.89011,-36.19936 -59.58315,-36.33014 -29.2503,-0.1433 -57.25732,15.6096 -79.77153,44.868512 -16.83533,21.87877 -32.88965,57.04758 -38.70922,84.79691 -1.15952,5.52895 -2.36273,16.03591 -2.6911,23.5 -1.51954,34.54055 8.32888,63.20714 29.6417,86.28042 5.05635,5.47401 6.67416,6.6584 8.39662,6.1471 1.17344,-0.34833 7.98353,-3.65237 15.13353,-7.34232 z"
     style="fill:#030303" />
</svg>
